<svg xmlns="http://www.w3.org/2000/svg" width="128" height="128" viewBox="0 0 128 128" fill="none" role="img" aria-label="Algorithm Blessing icon">
<title>Algorithm Blessing icon</title>
<path d="M22 112 L111 112 Q119 112 119 104 L119 28" stroke="#17130F" stroke-width="8" stroke-linecap="round" opacity="0.22"/><circle cx="64" cy="64" r="50" fill="#D8FAFF" stroke="#17130F" stroke-width="6"/>
<path d="M29 85 L55 59 L70 72 L101 36" stroke="#45A8F2" stroke-width="14" stroke-linecap="round" stroke-linejoin="round"/>
<path d="M83 36 H101 V54" stroke="#45A8F2" stroke-width="14" stroke-linecap="round" stroke-linejoin="round"/>
<path d="M29 85 L55 59 L70 72 L101 36" stroke="#17130F" stroke-width="5" stroke-linecap="round" stroke-linejoin="round"/>
<path d="M83 36 H101 V54" stroke="#17130F" stroke-width="5" stroke-linecap="round" stroke-linejoin="round"/>
<path d="M32 25.6 L34.4 30.4 L39.2 32 L34.4 33.6 L32 38.4 L29.6 33.6 L24.8 32 L29.6 30.4 Z" fill="#FFD23F" stroke="#17130F" stroke-width="1.2000000000000002" stroke-linejoin="round"/><path d="M100 82.4 L102.1 86.6 L106.3 88 L102.1 89.4 L100 93.6 L97.9 89.4 L93.7 88 L97.9 86.6 Z" fill="#FFF4CF" stroke="#17130F" stroke-width="1.0499999999999998" stroke-linejoin="round"/>
</svg>
