<svg xmlns="http://www.w3.org/2000/svg" width="128" height="128" viewBox="0 0 128 128" fill="none" role="img" aria-label="Ancient Forum Lore icon">
<title>Ancient Forum Lore icon</title>
<path d="M22 112 L111 112 Q119 112 119 104 L119 28" stroke="#17130F" stroke-width="8" stroke-linecap="round" opacity="0.22"/><circle cx="64" cy="64" r="50" fill="#FFF4CF" stroke="#17130F" stroke-width="6"/>
<path d="M31 34 C31 24 45 19 52 27 C56 31 56 40 50 45 H98 V91 C98 103 83 109 75 99 C70 93 72 84 80 82 H31 Z" fill="#FFF9EA" stroke="#17130F" stroke-width="6"/>
<path d="M50 45 H31 C23 45 23 34 31 34" stroke="#17130F" stroke-width="6"/>
<path d="M48 60 H84 M48 73 H80" stroke="#17130F" stroke-width="5" stroke-linecap="round" opacity="0.75"/>
<path d="M33 83 C28 101 50 105 55 89" stroke="#17130F" stroke-width="5" stroke-linecap="round"/>

</svg>
