<svg xmlns="http://www.w3.org/2000/svg" width="128" height="128" viewBox="0 0 128 128" fill="none" role="img" aria-label="Bot Invasion icon">
<title>Bot Invasion icon</title>
<path d="M22 112 L111 112 Q119 112 119 104 L119 28" stroke="#17130F" stroke-width="8" stroke-linecap="round" opacity="0.22"/><circle cx="64" cy="64" r="50" fill="#D8FAFF" stroke="#17130F" stroke-width="6"/>
<g stroke="#17130F" stroke-width="4" stroke-linecap="round">
<ellipse cx="45" cy="50" rx="16" ry="20" fill="#45A8F2"/><line x1="31" y1="39" x2="22" y2="31"/><line x1="59" y1="39" x2="68" y2="31"/><line x1="29" y1="53" x2="18" y2="53"/><line x1="61" y1="53" x2="72" y2="53"/>
<ellipse cx="82" cy="77" rx="17" ry="20" fill="#2FB36D"/><line x1="67" y1="67" x2="58" y2="59"/><line x1="97" y1="67" x2="106" y2="59"/><line x1="65" y1="80" x2="54" y2="82"/><line x1="99" y1="80" x2="110" y2="82"/>
</g>
<circle cx="40" cy="49" r="3" fill="#17130F"/><circle cx="50" cy="49" r="3" fill="#17130F"/><circle cx="77" cy="76" r="3" fill="#17130F"/><circle cx="87" cy="76" r="3" fill="#17130F"/>

</svg>
