<svg xmlns="http://www.w3.org/2000/svg" width="128" height="128" viewBox="0 0 128 128" fill="none" role="img" aria-label="Power User icon">
<title>Power User icon</title>
<path d="M22 112 L111 112 Q119 112 119 104 L119 28" stroke="#17130F" stroke-width="8" stroke-linecap="round" opacity="0.22"/><circle cx="64" cy="64" r="50" fill="#FFF0B0" stroke="#17130F" stroke-width="6"/>
<path d="M28 42 H100 Q109 42 109 51 V82 Q109 91 100 91 H72 L55 107 V91 H28 Q19 91 19 82 V51 Q19 42 28 42 Z" fill="#FFF9EA" stroke="#17130F" stroke-width="5"/>
<path d="M43 37 L51 21 L64 35 L77 21 L85 37 Z" fill="#FFD23F" stroke="#17130F" stroke-width="5" stroke-linejoin="round"/>
<circle cx="46" cy="66" r="5" fill="#17130F"/><circle cx="64" cy="66" r="5" fill="#17130F"/><circle cx="82" cy="66" r="5" fill="#17130F"/>

</svg>
