<svg width="988" height="432" viewBox="0 0 988 432" fill="none" xmlns="http://www.w3.org/2000/svg">
<path d="M477.324 74.1992C477.76 69.3714 477.965 64.1203 480.02 59.6531C482.077 55.1796 485.698 52.5567 490.218 50.9576C497.705 48.3091 528.672 48.9212 535.628 52.3569C540.674 54.8485 542.237 59.6116 543.974 64.5581C549.918 47.3385 562.567 50.7819 577.281 51.1497C586.451 51.379 593.157 50.7761 601.03 56.1373C602.405 55.3104 603.848 54.5618 605.348 53.9927C612.01 51.4678 642.166 53.1746 648.877 56.1971C653.73 58.3798 655.906 62.4121 657.71 67.1308C665.617 52.1373 677.803 57.064 691.991 57.4487C700.332 57.6746 707.911 58.0477 714.616 63.5011C721.52 60.0065 723.329 60.0378 731.028 60.8174C749.79 62.7167 768.802 64.2917 787.356 67.6492C789.72 68.0769 792.904 70.5984 794.785 72.1256C798.818 70.0892 804.289 68.6696 808.853 69.3613C831.642 72.8709 860.829 73.147 877.033 92.0522C896.928 115.257 892.215 158.565 869.392 178.104C872.045 189.618 876.16 204.452 877.511 216.135C877.858 219.146 874.732 224.134 872.315 226.328C868.051 230.182 862.45 232.214 856.704 231.992C850.158 231.69 829.346 226.827 822.886 223.74C821.13 222.899 819.336 220.972 817.985 219.495C810.696 222.489 804.689 221.286 797.178 219.675C789.536 218.034 780.327 217.81 774.012 212.863C766.568 214.272 764.151 213.771 756.77 212.554C781.075 253.262 773.525 305.135 737.855 336.692C777.428 339.743 780.255 396.867 741.743 404.2C733.798 405.713 720.873 404.971 712.291 404.972L662.438 404.952L486.04 404.954L260.284 404.962L191.811 404.952C184.061 404.964 176.23 404.976 168.487 405.003C157.784 405.04 150.141 405.634 140.77 399.655C133.807 395.238 128.934 388.184 127.266 380.106C123.022 360.414 133.57 341.308 153.76 337.031C148.24 312.106 144.337 284.206 140.317 258.943C138.383 246.787 134.421 226.954 134.162 215.15C126.92 215.853 123.967 216.107 117.505 212.349C105.094 221.449 87.2533 223.367 72.3247 226.416C63.5842 228.201 50.5376 232.247 41.8829 230.3C34.0845 228.546 28.3092 222.185 26.7721 214.291C23.8469 199.269 21.9169 183.951 19.0708 168.878C16.3128 154.869 13.6349 140.845 11.0371 126.806C9.35724 117.808 5.31532 102.058 7.8118 93.6383C9.53168 87.6458 13.5909 82.5988 19.0735 79.6366C27.3755 75.14 68.2415 69.3594 78.1784 69.314C83.8778 69.2561 89.553 70.0568 95.0135 71.6898C107.226 75.3688 113.72 81.8357 119.584 92.7718C119.576 88.4354 119.719 84.0416 120.909 79.8432C122.219 75.2206 125.069 70.7804 129.344 68.4235C136.704 64.3641 173.28 60.1527 181.55 62.6255C192.504 65.9014 192.869 76.6121 197.423 85.0846C196.551 68.6527 201.935 58.82 219.387 58.1959C231.678 57.7562 246.795 52.7435 255.945 62.4276C261.638 55.2535 267.924 54.5888 276.502 54.3378C285.549 54.0728 294.949 51.727 303.225 56.1233C311.647 51.4977 319.986 52.6123 329.321 51.9824C337.474 51.4316 343.318 50.5811 350.284 55.5658C359.401 47.9533 378.707 50.2746 390.352 50.4016C399.476 50.501 404.319 57.9966 406.574 66.0617C408.435 56.4554 412.832 52.4057 421.974 49.789C433.524 49.2074 448.043 49.2933 459.668 49.8764C472.543 50.5218 475.419 63.5247 477.324 74.1992Z" fill="#1B1B19"/>
<path d="M155.484 343.356C167.992 342.974 182.123 343.205 194.717 343.204L264.533 343.214L473.099 343.218L647.343 343.214L705.156 343.212C715.47 343.217 726.001 343.072 736.292 343.324C768.45 344.112 773.144 390.26 740.464 398.282C733.04 398.932 720.058 398.627 712.349 398.637L662.264 398.643L509.182 398.626L275.168 398.651L197.208 398.595C184.442 398.589 171.552 398.782 158.799 398.612C125.689 398.167 122.896 350.135 155.484 343.356Z" fill="#FDC54D"/>
<path d="M687.244 358.092C689.994 358.026 692.912 357.888 695.643 358.066L695.739 365.223L695.807 378.703L695.768 384.962C693.853 385.055 691.412 384.945 689.453 384.913L689.357 378.794L689.284 368.461C687.707 372.413 685.792 377.86 684.113 381.616L679.544 381.509C678.034 377.729 676.148 372.604 674.469 369.044L674.353 384.687C672.511 384.79 669.891 385.141 668.27 384.465C667.682 383.692 667.643 383.587 667.662 382.615C666.905 379.81 664.391 380.478 661.704 380.341L661.844 376.893C663.692 377.131 665.872 376.689 667.744 376.412C667.855 371.612 668.121 365.992 667.918 361.255C668.227 359.081 667.826 359.43 669.163 358.249C671.333 357.506 674.358 357.919 676.722 358.069C678.261 362.415 680.538 368.329 681.768 372.634C682.651 370.358 683.756 367.261 684.745 365.102L687.244 358.092Z" fill="#1B1B19"/>
<path d="M689.357 378.794C691.904 379.218 693.457 378.408 695.807 378.703L695.768 384.962C693.853 385.055 691.412 384.945 689.453 384.913L689.357 378.794Z" fill="#212019"/>
<path d="M667.744 376.412L667.662 382.615C666.905 379.81 664.391 380.478 661.704 380.341L661.844 376.893C663.692 377.131 665.872 376.689 667.744 376.412Z" fill="#FBBC49"/>
<path d="M342.195 358.087C344.839 357.91 347.523 358.022 350.176 358.081C350.32 366.976 350.396 375.872 350.403 384.768C348.252 384.853 345.963 384.83 343.798 384.847C343.425 379.87 343.639 373.506 343.989 368.555C342.515 372.179 339.783 381.887 335.66 381.541C332.72 379.645 330.853 372.998 329.591 369.531C329.292 374.622 329.085 379.717 328.97 384.815L322.356 385.011C322.284 377.791 322.037 367.999 322.68 360.871C322.679 359.119 322.404 359.419 323.312 358.311C325.371 357.46 328.603 358.027 330.989 358.074L333.228 363.589L336.566 372.604C338.348 367.729 340.225 362.889 342.195 358.087Z" fill="#1B1B19"/>
<path d="M322.68 360.871C322.679 359.119 322.404 359.419 323.312 358.311C325.371 357.46 328.603 358.027 330.989 358.074L333.228 363.589L333.071 364.349L332.353 364.822C329.778 365.07 325.561 365.293 323.091 364.576L322.68 360.871Z" fill="#1B1B19"/>
<path d="M288.954 357.945C292.062 357.829 294.101 357.753 297.185 358.035L299.735 364.789L302.562 372.614C304.402 368.05 306.187 362.648 307.844 357.949C310.859 357.795 313.324 357.915 316.342 358.053L316.802 384.863L310.06 384.773C309.854 379.658 309.797 374.351 309.674 369.218C302.297 388.076 301.796 385.053 295.306 368.929C295.373 374.181 295.322 379.435 295.155 384.686L288.628 384.782C288.458 378.084 288.702 371.153 288.853 364.435L288.954 357.945Z" fill="#1B1B19"/>
<path d="M288.954 357.945C292.062 357.829 294.101 357.753 297.185 358.035L299.735 364.789C296.102 364.524 292.492 364.495 288.853 364.435L288.954 357.945Z" fill="#212019"/>
<path d="M283.932 373.38C283.321 377.824 281.757 381.604 277.629 383.846C274.712 385.412 271.287 385.733 268.13 384.739C265.049 383.757 262.506 381.554 261.097 378.642C252.996 362.326 274.489 346.307 283.738 366.664C283.859 368.992 283.943 371.042 283.932 373.38Z" fill="#1B1B19"/>
<path d="M276.824 372.86C276.041 376.905 274.446 381.082 269.572 378.928C264.162 376.536 265.905 365.214 271.424 363.264C275.033 363.526 275.856 365.733 276.813 368.988L276.824 372.86Z" fill="#FDC54D"/>
<path d="M283.738 366.664C283.859 368.992 283.943 371.042 283.932 373.38C281.4 373.041 279.391 372.681 276.824 372.86L276.813 368.988C280.026 368.214 281.594 369.999 283.738 366.664Z" fill="#212019"/>
<path d="M564.574 367.814C565.345 363.27 567.666 359.756 572.138 358.138C575.254 357.034 578.689 357.238 581.656 358.703C585.356 360.534 586.678 362.837 587.952 366.46C588.531 369.75 588.588 370.669 588.42 374.004C587.556 377.971 586.408 381.094 582.761 383.467C580.059 385.215 576.774 385.812 573.633 385.124C568.804 384.093 566.18 380.815 564.472 376.444C564.289 372.983 564.274 371.257 564.574 367.814Z" fill="#1B1B19"/>
<path d="M564.573 367.814C565.345 363.27 567.666 359.756 572.138 358.138C575.254 357.034 578.689 357.238 581.656 358.703C585.356 360.534 586.678 362.837 587.952 366.46C586.702 367.669 585.945 367.61 583.967 367.576C582.954 367.552 581.945 367.515 580.932 367.464C578.033 361.511 573.19 362.346 571.289 368.163C568.824 367.69 566.831 368.369 564.573 367.814Z" fill="#1B1B19"/>
<path d="M587.952 366.46C588.531 369.75 588.588 370.669 588.42 374.004L587.744 373.131C585.795 372.782 583.33 373.122 581.314 373.296C581.357 371.062 581.188 369.65 580.932 367.464C581.945 367.515 582.954 367.552 583.967 367.576C585.945 367.61 586.702 367.669 587.952 366.46Z" fill="#212019"/>
<path d="M564.5 376.5C564.317 373.039 564.274 371.257 564.574 367.814C566.831 368.369 568.824 367.69 571.289 368.163L570.975 373.532C569.099 373.627 566.802 373.542 565.225 374.46C564.974 375.083 564.683 375.869 564.5 376.5Z" fill="#212019"/>
<path d="M370.967 357.765L377.757 357.763C377.796 363.84 378.008 369.853 377.671 375.847C377.12 385.608 364.87 387.977 358.976 382.373C354.57 378.182 356.116 363.986 356.259 358.031C358.234 357.972 360.854 357.814 362.777 357.924L362.79 366.218C365.425 366.305 368.238 366.146 370.885 366.052L370.967 357.765Z" fill="#212019"/>
<path d="M362.79 366.218C365.425 366.305 368.238 366.146 370.884 366.052C370.939 368.998 371.242 373.29 370.276 375.927L370.164 376.239C369.54 377.938 369.17 378.51 367.831 379.694C361.983 381.358 362.709 369.313 362.79 366.218Z" fill="#FBBC49"/>
<path d="M383.452 357.818L389.804 357.807L398.63 372.724C398.499 367.881 398.588 362.9 398.613 358.046C400.549 357.852 403.01 357.921 404.993 357.92C405.467 365.661 405.086 376.859 404.907 384.799L398.944 384.94C396.891 380.941 392.291 373.934 389.814 369.866C389.801 374.818 389.734 379.769 389.613 384.72L383.323 384.916C383 378.793 382.852 363.628 383.452 357.818Z" fill="#1B1B19"/>
<path d="M545.233 357.749C547.993 357.697 550.631 357.872 553.386 358.023L561.756 384.66L554.954 385.055L553.43 379.976L545.002 379.825L543.217 384.755L536.569 384.743C538.576 377.162 542.71 365.78 545.233 357.749Z" fill="#1B1B19"/>
<path d="M548.44 367.401C548.748 366.677 549.647 366.627 549.932 367.361C550.667 369.256 551.431 372.096 551.536 373.619C551.557 373.932 551.389 374.218 551.127 374.392L550.766 374.632C550.579 374.756 550.355 374.813 550.131 374.799C548.517 374.705 547.895 374.895 547.007 373.512C546.937 373.402 546.89 373.277 546.878 373.147C546.734 371.57 547.633 369.302 548.44 367.401Z" fill="#FDC54D"/>
<path d="M203.111 357.951C205.849 357.944 208.721 357.887 211.445 357.932C213.353 364.237 217.556 379.317 219.789 384.688L212.795 384.943L211.35 379.658L203.105 379.831L201.908 384.972C199.666 384.981 197.099 385.05 194.889 384.962C196.147 380.814 197.567 375.633 199.049 371.638L200.285 366.912L203.111 357.951Z" fill="#1B1B19"/>
<path d="M200.285 366.912C202.053 369.634 203.45 367.877 206.017 368.814L204.734 374.133L204.441 372.822C202.871 371.643 201.594 372.677 199.049 371.638L200.285 366.912Z" fill="#212019"/>
<path d="M206.017 368.814C206.53 367.514 206.537 366.797 207.519 366.137C208.373 367.895 209.416 372 209.331 373.941C207.662 374.326 206.444 374.198 204.734 374.133L206.017 368.814Z" fill="#FDC54D"/>
<path d="M599.221 357.742L599.631 357.696C603.162 357.315 610.968 357.404 611.441 362.156C611.166 363.938 609.381 365.207 607.996 366.47C607.794 366.208 607.581 365.952 607.364 365.701C605.603 363.679 601.662 362.27 599.588 364.08L599.66 365.194C601.918 369 605.676 368.994 609.468 370.829C613.11 372.59 613.597 377.334 612.121 380.749C610.929 383.508 607.171 384.588 604.426 385.411C600.717 385.412 594.416 384.727 592.409 381.075C592.154 379.542 592.332 379.286 592.983 377.898C597.291 375.045 602.463 382.736 605.787 378.093C604.118 373.664 594.821 372.814 592.568 366.994C590.716 362.211 595.685 359.195 599.221 357.742Z" fill="#1B1B19"/>
<path d="M525.772 357.979C528.088 357.785 530.572 357.279 532.454 358.436L532.435 359.77C532.56 363.29 532.994 382.303 532.338 384.761C530.611 384.814 527.702 385.175 526.395 384.286C525.478 383.132 525.743 381.28 525.782 379.737L525.816 374.512C523.679 374.309 519.679 374.06 517.706 374.623C517.619 377.925 517.677 381.496 517.668 384.822C515.55 384.996 513.003 384.955 510.851 384.977C510.909 381.712 510.899 378.406 510.923 375.136L510.933 366.755C512.757 366.575 515.748 366.606 517.479 367.157L518.116 367.979C520.21 368.557 523.476 368.338 525.734 368.3C525.796 364.902 525.763 361.389 525.772 357.979Z" fill="#1B1B19"/>
<path d="M531.942 373.837C531.875 370.498 531.489 362.672 532.435 359.77C532.56 363.29 532.994 382.303 532.338 384.761C530.611 384.814 527.702 385.175 526.395 384.286C525.478 383.132 525.743 381.28 525.782 379.737L525.816 374.512C527.702 374.579 530.037 374.129 531.942 373.837Z" fill="#212019"/>
<path d="M525.782 379.737C527.644 378.923 528.194 378.648 530.186 378.369C532.946 379.633 531.831 382.111 532.338 384.761C530.611 384.814 527.702 385.175 526.395 384.286C525.478 383.132 525.743 381.28 525.782 379.737Z" fill="#1B1B19"/>
<path d="M640.039 357.326C643.773 357.561 647.825 358.24 648.544 362.363C648.172 364.071 646.807 364.992 645.476 366.142C642.924 363.704 640.034 361.639 637.043 364.867C637.839 368.981 650.223 369.976 650.136 376.615C650.044 383.791 644.048 385.125 638.283 385.38C634.978 384.945 630.453 383.995 630.082 380.204C630.627 378.443 632.214 377.505 633.7 376.37C636.131 378.749 640.188 381.11 643.261 378.471L643.121 377.195C639.764 371.879 631.095 373.815 630.236 367.235C629.324 360.272 634.052 358.155 640.039 357.326Z" fill="#1B1B19"/>
<path d="M243.315 357.744C250.031 356.924 253.432 358.327 256.611 364.143C254.925 365.128 253.006 366.101 251.269 367.03C241.459 355.357 237.545 376.569 245.37 379.262C248.175 380.227 249.624 377.542 251.957 376.207C253.216 376.757 254.109 377.295 255.288 377.986C256.188 379.519 255.995 378.884 255.86 380.714C255.023 382.283 254.228 382.957 252.587 383.739C249.176 385.367 245.255 385.56 241.7 384.276C233.001 381.038 233.207 371.185 235.803 363.751C236.914 360.571 240.414 358.965 243.315 357.744Z" fill="#1B1B19"/>
<path d="M493.083 357.758C497.266 357.397 505.704 357.678 505.525 363.445C504.85 365.082 503.021 365.846 501.444 366.748C499.731 364.759 497.223 362.323 494.27 364.011C489.948 366.649 490.435 378.221 495.848 379.444C498.926 380.139 499.886 377.255 502.052 375.963C503.644 376.87 505.593 378.325 507.132 379.404C490.319 399.27 473.151 366.066 493.083 357.758Z" fill="#1B1B19"/>
<path d="M461.738 357.747L469.226 357.762C467.256 361.925 464.745 366.298 462.518 370.365C459.585 375.692 460.282 378.722 460.319 384.777L453.853 384.815C453.688 381.456 453.874 377.904 453.989 374.528C452.396 371.731 445.766 360.857 444.95 358.605L445.579 357.917L452.097 357.797C453.372 360.925 455.531 364.837 457.118 367.908L461.738 357.747Z" fill="#1B1B19"/>
<path d="M427.056 357.906C430.274 357.946 446.496 355.515 442.069 363.154C440.361 364.027 437.576 363.747 435.562 363.718L435.591 383.333L435.19 384.404C433.602 385.06 430.803 384.81 428.985 384.772C428.92 377.693 428.844 370.843 429.104 363.759C427.064 363.727 425.01 363.764 423.008 363.39C422.551 362.866 421.955 362.427 422.005 361.776C422.315 357.71 424.424 358.02 427.056 357.906Z" fill="#1B1B19"/>
<path d="M654.994 357.98C657.358 357.892 658.506 357.866 660.913 358.148L661.429 358.837C661.569 362.669 661.917 372.112 661.376 375.725L661.844 376.893L661.704 380.341C661.617 382.642 661.955 382.498 660.899 384.23C656.639 386.923 654.96 384.703 654.738 380.421L654.7 377.769C655.061 371.896 654.685 364.469 654.994 357.98Z" fill="#1B1B19"/>
<path d="M661.376 375.725L661.844 376.893L661.704 380.341C661.617 382.642 661.955 382.498 660.899 384.23C656.639 386.923 654.96 384.703 654.738 380.421L654.7 377.769C656.861 377.384 659.046 377.506 661.241 377.543L661.376 375.725Z" fill="#212019"/>
<path d="M654.7 377.769C656.861 377.384 659.046 377.506 661.241 377.543C661.217 378.019 661.251 379.507 660.99 379.793C659.654 381.24 656.277 381.64 654.738 380.421L654.7 377.769Z" fill="#1B1B19"/>
<path d="M411.094 358.06C413.061 357.962 415.633 358.065 417.648 358.086C417.923 366.685 417.733 376.046 417.723 384.7L411.178 384.925C410.993 375.971 410.965 367.015 411.094 358.06Z" fill="#1B1B19"/>
<path d="M725.042 364.157C728.693 362.882 732.683 364.803 733.966 368.451C735.245 372.099 733.334 376.097 729.692 377.386C726.035 378.679 722.026 376.759 720.743 373.1C719.46 369.443 721.385 365.435 725.042 364.157Z" fill="#1B1B19"/>
<path d="M164.953 364.12C168.569 362.933 172.471 364.854 173.736 368.445C175.001 372.036 173.165 375.98 169.604 377.323C167.231 378.218 164.56 377.758 162.623 376.121C160.685 374.484 159.784 371.927 160.268 369.436C160.752 366.946 162.544 364.912 164.953 364.12Z" fill="#1B1B19"/>
<path d="M511.097 357.964C513.099 357.836 515.608 357.925 517.653 357.94C517.697 361.013 517.639 364.088 517.479 367.157C515.748 366.606 512.757 366.575 510.933 366.755L511.097 357.964Z" fill="#212019"/>
<path d="M681.17 194.864C719.72 191.723 753.49 220.515 756.51 259.1C759.525 297.684 730.642 331.382 692.073 334.279C653.672 337.164 620.173 308.422 617.167 270.009C614.167 231.596 642.784 197.991 681.17 194.864Z" fill="#EE5629"/>
<path d="M688.594 229.197C690.331 229.204 691.889 229.174 692.777 230.846C695.84 236.624 697.249 243.831 699.656 249.922C704.765 251.542 721.225 253.869 722.904 258.418C722.152 262.809 709.773 270.232 705.383 274.114C705.199 289.42 711.977 309.988 688.855 293.401C687.509 292.437 685.782 291.43 684.359 290.511C677.74 286.903 651.303 310.533 662.264 280.024C663.291 277.174 664.121 273.393 664.912 270.397C646.103 247.222 643.16 249.069 676.577 247.975C679.226 242.992 684.523 232.34 688.594 229.197Z" fill="#1B1B19"/>
<path d="M434.751 186.467C441.867 186.494 470.673 185.533 474.967 188.171C476.2 192.115 475.69 203.094 475.619 207.607L475.139 235.592C474.739 261.325 474.591 287.112 474.144 312.848C474.128 313.771 473.989 317.592 473.423 318.199C472.171 319.539 469.86 320.376 468.052 320.499C462.533 320.696 456.828 320.252 451.275 320.029C447.729 319.887 433.528 321.508 431.445 318.976C426.809 313.343 423.01 305.993 418.971 299.858C410.835 287.502 403.252 274.779 395.653 262.1C395.459 280.232 396.244 298.404 396.438 316.528C396.472 319.644 393.403 320.518 390.882 320.494C383.994 320.493 359.729 321.777 356.007 319.385C355.052 316.76 354.714 314.112 354.602 311.329L351.86 234.915C351.657 228.638 349.639 192.998 352.058 190.364C357.183 187.37 388.197 187.191 396.068 187.272C399.666 191.295 407.735 205.555 410.723 210.837L431.372 247.637C431.321 239.622 430.356 193.018 431.692 188.747C432.689 187.357 433.187 187.204 434.751 186.467Z" fill="#EE5629"/>
<path d="M216.271 198.091C222.849 196.895 234.019 198.062 240.667 199.417C260.346 203.427 272.461 222.279 267.91 241.885C265.828 250.849 260.338 256.001 252.619 260.684C257.061 262.095 262.255 263.642 265.978 266.521C278.712 276.366 281.116 298.513 270.945 310.948C259.047 325.493 238.766 327.233 221.39 329.33C214.672 330.115 173.946 336.155 170.944 334.308C170.169 333.831 169.776 332.691 169.57 331.863C166.125 317.993 164.585 303.194 162.201 289.073C159.504 273.201 157.009 257.295 154.715 241.36C154.059 236.974 149.696 212.022 151.36 209.234C153.804 207.093 157.375 206.205 160.544 205.775C179.032 203.261 197.713 199.87 216.271 198.091Z" fill="#EE5629"/>
<path d="M215.597 279.664C220.036 279.186 224.062 278.749 228.007 281.309C230.457 282.884 232.18 285.371 232.797 288.219C234.454 296.019 228.43 299.312 221.904 300.579C216.841 301.392 212.233 301.876 207.138 302.396C206.316 295.318 205.374 288.255 204.312 281.21C208.057 280.486 211.812 280.101 215.597 279.664Z" fill="#1B1B19"/>
<path d="M211.919 230.928C221.332 229.554 226.56 239.214 221.532 246.905C219.151 250.546 215.731 251.137 211.737 251.802C208.453 252.253 205.166 252.678 201.876 253.079C201.443 246.73 200.629 238.516 199.514 232.285C203.688 231.67 207.726 231.315 211.919 230.928Z" fill="#1B1B19"/>
<path d="M549.778 185.563C566.904 184.661 587.267 189.521 600.114 201.264C602.376 203.331 608.363 209.197 608.546 212.27C607.147 214.664 578.819 235.808 574.917 238.239C571.308 233.995 569.557 230.362 564.13 227.942C554.269 223.053 542.315 228.539 538.267 238.699C532.811 252.379 529.936 282.175 546.627 289.905C552.571 292.658 559.122 291.71 564.993 289.505L565.046 278.897C560.69 278.545 548.861 279.606 550.236 272.543C551.379 266.663 548.837 252.779 552.571 248.644C557.183 246.761 594.455 250.59 603.37 250.526C605.155 251.326 606.554 252.879 606.535 254.877C606.332 273.236 603.775 291.957 603.505 310.284C593.659 317.675 587.566 321.198 575.983 325.135C574.936 323.375 573.677 321.75 572.451 320.106C567.507 324.266 560.975 326.235 554.621 326.483C516.819 327.963 491.303 306.623 488.896 268.675C486.262 227.125 504.353 188.759 549.778 185.563Z" fill="#EE5629"/>
<path d="M72.1404 86.5859C96.8973 84.4312 111.471 97.549 110.362 123.287C109.997 131.764 105.248 136.876 99.033 142.064C102.476 143.094 105.971 144.18 109.053 146.095C122.214 154.268 124.637 176.192 116.664 188.623C108.387 201.528 91.9313 204.157 78.0312 207.191C72.6561 208.269 47.3385 214.307 44.0507 213.267C42.0438 209.287 40.0285 194.346 39.1729 189.266C37.5555 179.833 35.878 170.411 34.1403 160.999C32.3955 151.576 21.8313 103.088 23.5853 96.1811C27.6261 92.2897 64.6228 87.4021 72.1404 86.5859Z" fill="#FEFAEF"/>
<path d="M75.5381 159.914C89.2451 157.278 93.9483 175.55 80.6768 180.103C77.3949 180.787 74.3996 181.255 71.0815 181.748C69.9058 174.99 68.7861 168.222 67.7228 161.446C69.8016 160.826 73.2861 160.308 75.5381 159.914Z" fill="#1B1B19"/>
<path d="M65.908 115.98C80.0652 114.065 82.9066 130.371 72.4472 135.31C69.9637 136.033 65.703 136.75 63.0477 137.276C62.0289 130.568 60.885 123.879 59.6163 117.213C61.5069 116.718 63.9494 116.34 65.908 115.98Z" fill="#1B1B19"/>
<path d="M610.013 68.2231C616.043 68.701 637.993 69.0413 641.24 70.5289C644.236 74.2745 651.134 111.63 652.968 119.495C656.436 111.149 659.823 102.769 663.132 94.3575C664.826 90.065 669.944 75.9576 672.472 72.8284C673.591 72.3998 674.633 72.2564 675.83 72.2579C679.486 72.2627 683.158 73.1103 686.805 73.3806C691.393 73.7204 696.198 73.3068 700.713 74.1408C702.151 74.4058 703.868 74.8924 704.91 75.9803C706.179 77.3082 705.827 79.5063 705.778 81.2647C705.566 88.8708 698.156 182.098 697.36 182.782C695.865 184.067 692.719 183.879 690.847 183.734C687.003 183.437 670.928 182.436 669.037 179.852C667.585 177.866 668.728 172.47 668.979 170.021L673.056 130.433C667.426 142.087 663.05 155.638 657.121 167.447C651.583 167.311 646.055 166.835 640.574 166.021C637.082 153.958 635.335 140.361 631.283 127.607C631.071 133.044 628.113 174.907 626.922 176.576C626.55 177.104 625.629 177.454 624.992 177.519C620.578 177.964 602.376 176.706 599.453 174.429C598.975 172.903 598.994 170.224 599.134 168.595C601.952 136 604.122 103.307 607.089 70.7466C607.191 69.6331 609.082 68.6996 610.013 68.2231Z" fill="#FEFAEF"/>
<path d="M495.322 65.1157C499.741 64.9868 524.098 65.0882 527.683 66.0304C530.553 69.301 539.883 105.49 542.146 112.391C544.833 105.255 556.411 70.8765 559.455 66.7631C560.42 66.124 561.341 66.0405 562.465 65.9831C566.325 65.7876 570.377 66.458 574.241 66.6381C577.662 66.7969 581.101 66.5633 584.526 66.5782C586.948 66.5884 589.713 66.8389 591.473 68.6803C592.467 69.7267 592.033 74.1076 592.009 75.6101C591.84 85.4038 588.661 172.281 587.387 173.405C584.44 176.007 570.686 174.045 566.32 173.939C564.207 173.888 560.97 173.972 559.498 172.182C557.839 170.165 559.045 164.071 559.195 161.495C560.526 149.467 560.015 135.877 561.795 123.422C556.15 135.685 552.822 148.599 547.708 160.214C542.073 160.399 536.69 160.066 531.079 159.662C527.099 147.35 524.2 134.321 520.379 121.79C520.147 128.115 518.956 168.462 517.455 171.178C513.934 173.308 503.61 170.918 499.157 171.657C497.951 171.857 489.494 171.391 489.489 169.928C489.374 147.321 490.681 123.956 491.554 101.239L492.48 78.6935C492.635 75.2394 492.765 71.5658 493.054 68.1064C493.141 67.113 494.564 65.8508 495.322 65.1157Z" fill="#FEFAEF"/>
<path d="M801.409 85.871C811.805 85.6891 840.258 91.8297 850.09 94.8204C874.419 102.219 877.878 131.085 869.281 151.715C865.016 161.939 861.649 164.449 851.557 168.78C853.621 183.337 858.923 198.189 860.824 212.822C860.964 213.878 860.245 214.232 859.56 214.844C856.868 215.773 840.866 211.099 836.886 210.123C833.736 209.485 832.096 209.098 829.071 208.035C825.839 194.094 824.512 183.211 819.852 168.953C818.014 175.951 815.24 199.077 813.46 203.358C810.343 205.643 786.599 200.288 783.781 198.233C782.927 196.601 783.294 194.419 783.583 192.472C786.734 171.3 789.729 150.1 792.663 128.9L796.445 102.304C797.086 97.8932 797.704 93.2575 798.563 88.8752C798.775 87.8153 800.531 86.5593 801.409 85.871Z" fill="#FEFAEF"/>
<path d="M826.717 119.583C830.981 120.195 834.522 120.38 837.812 123.556C843.582 129.13 840.683 140.123 835.695 145.229C831.203 147.343 827.416 146.39 822.742 145.514C823.32 138.376 825.525 126.951 826.717 119.583Z" fill="#1B1B19"/>
<path d="M290.032 69.3005C293.849 68.9709 297.558 68.1942 298.07 73.2295C298.617 78.6206 298.789 84.0498 299.069 89.4616C299.548 98.6505 300.083 107.836 300.674 117.019C301.829 134.545 303.494 152.032 304.672 169.554C305.084 175.684 304.564 177.093 298.072 177.677C290.741 178.337 283.382 178.915 276.032 179.422C273.29 175.979 268.638 166.985 266.295 162.787C260.5 152.335 254.634 141.923 248.696 131.551C249.05 139.669 253.31 176.939 252.013 181.077C249.909 183.266 233.682 184.164 229.998 184.521C227.95 184.716 225.076 185.334 223.336 183.99C222.621 183.437 222.533 182.405 222.421 181.54C220.996 170.565 211.426 78.443 213.579 76.0571C216.182 73.1726 240.227 72.3153 245.165 72.3733C247.469 75.5981 251.122 82.3464 253.191 85.9492C259.102 96.2409 264.749 106.502 270.773 116.746C270.184 108.963 265.884 76.1715 268.933 71.2559C271.35 69.4424 286.079 69.4777 290.032 69.3005Z" fill="#FEFAEF"/>
<path d="M368.714 65.8942C373.186 65.7397 388.756 64.1667 391.152 67.5643C392.006 75.1134 393.681 168.647 393.065 170.368C392.744 171.267 392.131 171.882 391.267 172.288C388.663 173.51 367.027 173.992 364.231 172.921C362.287 170.269 361.999 137.142 361.761 131.18C357.735 130.822 349.487 131.298 345.387 131.568C345.202 144.755 346.651 157.966 346.857 171.142C346.909 174.429 344.385 174.958 341.675 175.188C336.404 175.157 320.439 177.061 317.072 175.504C315.657 170.653 315.481 159.865 315.218 154.363L313.718 122.942L312.073 92.1748C311.722 85.7696 310.875 76.0884 311.655 69.9371C314.541 66.4652 329.508 67.9866 334.16 67.1945C336.287 66.8321 340.023 66.6245 341.753 68.0156C343.709 72.0996 343.812 98.6948 344.011 105.004C349.331 104.916 354.65 104.747 359.965 104.496C360.068 98.6992 358.576 71.1139 359.912 67.629C362.403 65.218 365.073 65.8508 368.714 65.8942Z" fill="#FEFAEF"/>
<path d="M174.425 77.9078C175.135 77.8088 175.615 77.9768 176.342 78.1095C177.386 78.666 178.078 79.6256 178.454 80.7005C182.756 92.9915 216.18 179.04 214.012 184.846C211.19 187.742 192.847 188.175 187.804 189.91C182.748 191.651 180.595 178.14 179.25 174.253C173.146 174.892 166.804 175.859 160.702 176.708C159.606 176.698 159.44 176.835 158.484 177.395C155.895 181.442 159.69 189.757 156.073 193.22C151 194.92 134.76 196.87 128.635 197.473C127.651 197.57 126.944 196.52 126.325 195.817C125.46 191.012 127.743 178.887 128.355 173.325C129.723 160.125 131.014 146.918 132.227 133.704L134.826 103.198C135.267 97.8382 135.725 88.2555 137.193 83.4528C139.756 80.9834 168.663 78.5681 174.425 77.9078Z" fill="#FEFAEF"/>
<path d="M162.216 119.035C163.578 119.933 171.828 146.376 172.465 149.286C171.69 150.39 171.581 150.076 169.805 150.419C166.335 150.99 162.597 151.324 159.081 151.7C159.964 142.108 160.778 128.227 162.216 119.035Z" fill="#1B1B19"/>
<path d="M424.618 65.3725C430.149 65.318 455.612 64.6292 459.013 65.8851C461.014 68.7957 463.503 80.5022 464.34 84.2116C466.572 94.1099 484.004 167.08 481.74 170.286C478.089 172.146 458.342 172.05 453.84 170.286C452.221 169.652 451.822 162.928 451.604 161.102L450.394 155.518C444.33 155.332 437.611 155.461 431.496 155.45C431.07 158.213 430.015 170.633 427.327 171.133C422.581 172.017 402.531 174.131 400.181 170.066C400.492 167.109 401.053 164.599 401.647 161.636C407.966 130.145 414.117 98.5767 421.793 67.4003C422.054 66.3417 423.659 65.7205 424.618 65.3725Z" fill="#FEFAEF"/>
<path d="M440.749 100.255C442.214 101.461 446.165 126.912 446.54 130.741L446.072 131.272L442.501 131.366L434.823 131.375C436.967 121.099 438.533 110.568 440.749 100.255Z" fill="#1B1B19"/>
<path d="M722.644 76.6759C733.214 77.0548 748.068 79.7096 758.879 80.7213C764.557 81.2527 780.182 82.8055 784.572 84.3809C786.922 86.832 783.926 108.911 781.861 110.909C778.045 111.921 754.841 107.883 748.598 107.231C747.942 112.269 747.445 117.328 747.117 122.398C755.974 123.823 766.409 124.126 774.697 126.988C776.622 127.653 773.414 148.849 772.198 150.535C768.633 152.1 749.259 148.357 744.131 147.564C743.263 152.694 742.621 157.861 742.201 163.047C751.401 165.89 764.19 165.378 773.646 168.454C777.611 169.745 773.626 182.59 773.723 186.493C773.867 190.765 771.658 197.366 766.081 195.406C754.749 191.421 717.439 189.767 709.45 185.314C707.298 181.032 719.518 92.8689 719.576 81.0273C719.585 78.7693 720.955 77.9864 722.644 76.6759Z" fill="#FEFAEF"/>
<path d="M319.677 190.863C322.225 190.711 325.797 190.094 328.225 190.847C329.394 191.209 330.458 191.961 331 193.087C331.69 194.52 336.831 301.797 336.895 313.507C336.906 315.493 336.78 317.44 336.198 319.351C333.496 322.429 307.741 322.641 301.877 323.034C299.751 323.248 297.289 323.666 295.588 322.327C294.284 321.3 293.444 320.537 293.271 318.836C292.753 313.768 292.449 308.518 292.096 303.448L290.02 274.875L286.646 226.777C286.095 218.481 285.278 210.081 285.083 201.773C285.046 200.167 284.856 196.157 285.863 194.929C288.341 191.91 314.605 191.215 319.677 190.863Z" fill="#EE5629"/>
<path d="M60.3587 262.519C65.5578 262.484 97.8627 266.857 81.7932 276.785C75.9482 276.669 68.6028 276.312 62.8765 275.515C54.3376 274.327 53.3974 267.326 60.3587 262.519Z" fill="#EE5629"/>
<path d="M830.615 262.71C837.166 261.345 841.956 266.151 838.792 271.774C836.857 275.208 823.504 275.533 818.781 276.075C813.165 276.801 808.621 275.517 810.739 269.026C811.916 265.414 827.431 263.304 830.615 262.71Z" fill="#EE5629"/>
<path d="M86.6603 293.371C89.0097 293.437 91.0996 293.9 92.5227 295.925C94.7356 302.406 78.5436 313.622 73.8318 315.787C64.8944 314.115 65.9996 307.631 72.1963 303.194C76.9178 299.813 81.7676 296.477 86.6603 293.371Z" fill="#EE5629"/>
<path d="M805.944 292.85C809.316 292.578 814.671 296.538 817.58 298.529C823.176 302.365 833.07 307.437 824.888 314.187C823.928 314.584 822.891 314.759 821.854 314.697C818.781 314.511 807.7 304.959 805.288 302.207C802.065 298.526 801.964 295.787 805.944 292.85Z" fill="#EE5629"/>
<path d="M570.331 369.577C570.353 369.177 570.419 368.777 570.55 368.398C572.791 361.889 577.908 360.927 581.204 367.38C581.444 367.851 581.579 368.369 581.636 368.894C581.711 369.589 581.777 370.228 581.832 370.85C582.058 373.416 580.036 375.583 577.468 375.788C576.235 375.886 574.95 375.968 573.772 375.993C571.526 376.039 570.084 374.129 570.206 371.886L570.331 369.577Z" fill="#FDC54D"/>
<path d="M570.491 372.829C570.513 373.229 570.58 373.629 570.71 374.008C572.951 380.517 578.068 381.479 581.364 375.026C581.604 374.555 581.74 374.037 581.796 373.512C581.871 372.816 581.937 372.178 581.992 371.556C582.218 368.99 580.196 366.823 577.628 366.618C576.395 366.52 575.11 366.438 573.932 366.413C571.687 366.367 570.244 368.277 570.366 370.52L570.491 372.829Z" fill="#FDC54D"/>
</svg>
