<svg width="208" height="228" viewBox="0 0 208 228" fill="none" xmlns="http://www.w3.org/2000/svg">
<path d="M118.657 10.029C123.328 9.33993 130.655 11.115 134.325 14.0022C139.69 18.2218 144.634 24.4152 149.246 29.4287C152.612 33.1435 156.295 36.5592 160.251 39.6378C167.324 45.2259 175.74 49.7898 184.283 52.8297C196.479 57.1699 207.624 62.3153 206.515 77.4511C205.764 84.8487 204.202 92.3914 202.596 99.6565C199.179 115.107 195.603 131.865 190.334 146.775C187.751 153.922 184.595 160.848 180.896 167.487C174.219 179.34 164.859 189.672 154.163 197.863C152.024 199.501 149.204 202.076 146.943 203.42C133.938 211.146 120.38 217.606 105.776 221.691C102.831 222.511 99.8711 223.419 96.8383 223.84C88.0259 225.097 79.0644 219.269 72.4456 213.921C68.443 210.687 63.3058 206.657 59.4495 203.178C45.8744 191.128 35.2843 176.088 28.5139 159.246C24.6184 149.639 22.2882 141.296 20.9427 130.914C20.0425 124.174 19.5644 117.383 19.5112 110.583C19.5179 93.1433 22.3182 74.1798 24.2554 56.8209C24.945 50.6433 26.1102 44.4931 30.1036 39.5104C38.6671 28.825 53.4725 31.7047 65.4932 30.3271C72.5193 29.536 79.4102 27.8194 85.9865 25.2224C90.0486 23.6114 95.6518 20.8942 99.4819 18.7773C106.861 14.699 109.911 11.1124 118.657 10.029Z" fill="#FDFAF1"/>
<path d="M119.989 21.7975C127.916 21.1366 131.125 26.8029 135.761 32.5469C146.377 45.8051 160.144 56.1937 175.806 62.765C178.888 64.0687 182.002 65.2949 185.145 66.4432C188.89 67.8023 192.53 68.4263 193.688 73.1154C194.541 76.571 193.363 80.9743 192.742 84.4933C191.773 90.1152 190.665 95.7121 189.42 101.279C187.666 109.5 185.763 117.687 183.71 125.838C182.758 129.638 181.782 133.81 180.646 137.541C178.742 143.7 176.425 149.724 173.712 155.573C167.104 169.493 158.442 180.524 146.233 189.999C144.108 191.645 141.691 192.986 139.503 194.526C128.391 202.351 116.003 206.41 103.29 210.931C99.7687 212.081 96.9822 213.135 93.2819 213.675C90.7893 212.601 88.5966 211.246 86.3492 209.737C64.5905 195.12 45.3584 176.331 37.2251 150.759C34.9962 143.75 33.8067 137.959 32.7553 130.616C31.6769 122.813 31.2402 114.935 31.45 107.061C31.667 96.8553 33.1983 86.4721 34.3094 76.3321C34.6458 70.4896 35.8008 64.444 36.4412 58.7084C37.8336 46.2381 39.6587 44.9452 51.8663 44.5144C54.3199 44.4384 56.772 44.3192 59.2213 44.1573C77.3524 42.8827 94.8504 36.2363 110.061 26.5553C113.525 24.351 115.797 22.3858 119.989 21.7975Z" fill="#1B1B18"/>
<path d="M120.751 26.6461C125.183 26.2968 127.127 30.2748 129.624 33.4262C141.122 47.9328 155.947 59.5861 172.888 67.0822C177.626 69.1785 182.888 70.0426 187.445 72.4634C188.275 72.9066 189.212 74.3811 189.701 75.2308C189.538 77.0018 188.793 79.857 188.451 81.7529C187.636 86.2747 186.747 90.8263 185.806 95.3186C182.173 112.655 178.969 130.203 172.026 146.591C170.273 150.729 169.114 153.639 166.993 157.642C156.426 177.586 138.774 191.329 118.234 199.958C113.022 202.148 108.824 203.986 103.335 205.613C100.435 206.503 96.3856 207.87 93.5075 208.416C86.6535 203.875 83.7843 201.549 77.521 196.69C60.2637 183.303 50.0676 169.77 42.631 149.034C33.024 122.246 36.8777 94.6042 40.6972 67.0887C41.7041 62.246 41.6881 56.7594 43.2107 52.1156C44.2097 49.0685 52.2754 49.3588 54.9099 49.3108C74.353 48.957 92.137 43.0702 108.821 33.3302C112.824 30.993 116.369 28.2738 120.751 26.6461Z" fill="#FAC34E"/>
<path d="M118.845 47.7516C121.374 48.3803 125.889 53.9977 127.988 55.9175C133.787 61.2227 139.155 66.1225 145.931 70.1886C149.158 72.125 152.103 74.3336 155.509 76.1546C157.492 77.2125 159.515 78.1948 161.573 79.0987C164.634 80.4202 168.893 81.69 171.214 83.8429C171.173 89.584 169.293 96.1732 168.166 101.799C164.443 120.39 161.117 137.037 151.046 153.333C139.037 172.766 124.341 180.79 103.589 188.514C101.36 189.333 99.4787 190.025 97.1882 190.664C80.9592 179.199 65.1248 166.044 58.1647 146.672C50.5845 125.575 52.0701 102.408 55.1938 80.6252C55.7241 76.9265 56.1814 69.006 57.6036 65.9317C60.2666 65.1861 64.4618 65.0291 67.3388 64.6066C80.842 62.6241 93.7554 58.9213 106.257 53.4647C109.91 51.87 115.172 48.6115 118.845 47.7516Z" fill="#1B1B18"/>
<path d="M137.718 92.8848C141.237 92.7156 144.444 97.8232 146.407 100.271C147.194 101.25 147.903 102.68 147.672 103.968C145.513 106.917 141.366 110.196 138.549 112.655C135.415 115.417 132.307 118.208 129.225 121.027C119.931 129.46 110.638 137.844 101.607 146.561C99.0411 149.037 96.1125 148.652 92.9058 147.937C88.9286 143.559 85.0576 138.192 81.3516 133.451C78.5562 129.512 75.53 125.502 72.8171 121.522C71.2626 119.022 72.0231 115.992 74.0025 114.119C77.0449 111.239 81.5015 108.245 85.368 111.514C90.3866 115.756 93.4274 121.862 98.185 126.373C101.246 124.381 103.645 121.486 106.314 118.921C112.369 113.076 118.539 107.351 124.819 101.749C128.412 98.5321 132.874 93.5697 137.718 92.8848Z" fill="#FDFAF1"/>
</svg>
