<svg width="278" height="320" viewBox="0 0 278 320" fill="none" xmlns="http://www.w3.org/2000/svg">
<path d="M92.8444 5.60241C102.411 4.39711 114.777 6.95614 123.521 10.7101C139.049 17.3497 151.304 29.8875 157.587 45.564C165.547 65.6525 163.953 83.3497 155.538 102.761C156.543 107.936 160.972 121.517 162.912 126.313C173.401 125.86 178.965 130.178 184.387 138.732L202.044 133.984C214.257 130.696 220.818 128.459 232.885 134.994C237.174 137.316 242.736 143.284 244.632 147.544C246.571 151.901 248.599 160.281 250.065 165.243C253.712 177.826 257.552 190.352 261.587 202.816C263.07 207.356 265.15 209.815 266.702 213.691C269.27 220.403 271.01 227.075 273.207 233.954C276.575 244.5 269.867 256.46 260.435 261.362C257.435 262.922 252.105 264.065 248.773 265.105C238.985 268.153 228.997 270.61 219.117 273.342L171.124 286.975C164.839 288.78 158.609 290.745 152.301 292.46L95.5724 308.462C91.8782 309.447 88.1944 310.47 84.5219 311.533C73.0937 314.918 64.9267 317.635 54.0359 310.283C45.1222 304.268 43.1332 293.915 40.6232 284.203C39.4987 279.92 38.3074 275.652 37.0502 271.405C31.4827 252.795 25.0932 234 20.5258 215.095C18.6618 207.379 20.6923 197.861 25.0204 191.253C31.0687 182.02 40.6999 180.243 50.6264 177.617C54.8864 176.458 60.1909 174.946 64.4769 174.137C64.2292 164.156 66.0927 159.333 73.6702 152.589C71.9644 146.721 70.3637 140.852 68.4302 135.047C67.7869 133.116 67.2602 130.584 66.5042 128.84C56.9299 124.841 47.9007 116.024 42.3544 107.249C39.9289 103.411 37.9317 98.2285 36.3844 93.8832C21.2423 51.3612 47.3079 9.37444 92.8444 5.60241Z" fill="#272725"/>
<path d="M96.3847 9.60735C105.127 9.03442 117.527 12.104 125.255 15.8984C141.52 23.8843 152.587 38.04 156.817 55.6132C159.058 64.9225 159.918 72.7437 157.87 82.2402C157.186 85.4125 156.509 88.1145 155.548 91.148C154.748 93.674 151.156 100.42 151.388 102.5C152.294 110.625 156.259 121.643 158.958 129.256C171.005 129.657 176.68 133.378 181.908 144.001C191.696 141.501 201.336 138.786 211.057 136.066C218.041 134.112 225.127 135.104 231.378 138.93C235.144 141.193 238.233 144.425 240.324 148.29C241.803 151.042 242.681 154.158 243.667 157.111C246.258 164.741 247.977 172.614 250.19 180.351C251.567 185.16 253.125 189.936 254.547 194.733C255.81 198.979 257.17 203.205 258.212 207.51C260.622 209.739 261.89 210.828 263.037 214.017C265.445 220.717 267.167 227.823 269.257 234.588C270.98 240.162 270.042 244.187 267.272 249.143C262.762 257.795 254.465 258.623 245.935 260.975C240.16 262.568 234.394 264.195 228.638 265.855L148.814 288.435L90.4272 305.013C85.088 306.475 79.6195 308.397 74.485 309.71C64.041 312.38 53.208 307.433 49.2982 297.228C48.344 294.735 47.244 291.718 46.599 289.1C45.2267 283.528 41.5877 275.873 43.875 270.295C41.8805 268.623 40.888 266.787 40.1162 264.337C37.178 255.007 34.1867 245.741 31.102 236.46C29.6865 232.144 28.3582 227.8 27.1182 223.43C24.1306 213.118 22.4789 207.316 27.3495 197.076C32.875 185.46 43.406 184.54 54.5977 181.382C59.7617 179.924 65.385 178.573 70.5752 176.852C69.7712 172.921 69.1432 170.233 69.9742 166.195C71.0217 161.101 74.8107 156.322 79.1732 153.573C78.4335 151.957 77.3695 148.019 76.826 146.162L72.9522 132.978C72.2672 130.697 71.3985 127.538 70.1955 125.549C68.83 124.724 67.1225 124.084 65.6922 123.309C41.3312 110.107 31.069 74.3832 40.2257 49.2295C48.9922 25.1472 71.628 10.9861 96.3847 9.60735Z" fill="#FDF9EF"/>
<path d="M96.7266 159.574C95.0408 153.166 85.2626 119.402 81.4283 116.289L81.2983 116.185C79.3238 114.576 75.2501 112.678 72.8141 111.146C63.9866 105.67 58.4151 97.7938 54.6328 88.325C44.5928 63.191 55.8256 36.242 81.5483 26.9918C95.3868 22.0152 105.47 22.1975 118.945 28.2598C129.832 33.0873 138.289 42.1345 142.371 53.3228C147.106 65.9338 146.919 78.8975 141.133 91.0773C137.318 99.1083 135.657 99.3798 137.948 108.625C140.967 120.805 144.891 131.967 149.531 143.601C150.06 143.375 150.552 143.211 151.104 143.055C166.792 138.633 169.106 149.313 172.381 161.071C177.803 159.338 184.131 157.899 189.717 156.244C197.372 153.975 205.279 151.868 212.979 149.749C216.988 148.705 220.212 148.83 223.81 151.02C230.589 155.146 231.398 163.63 233.506 170.686C235.578 177.485 237.612 184.295 239.608 191.116C240.775 195.061 241.946 198.899 242.962 202.89C244.188 207.706 242.666 210.838 240.153 214.865C243.644 214.278 247.226 215.098 250.115 217.146C251.84 220.095 255.023 230.187 255.36 233.516C255.543 235.287 255.405 237.077 254.955 238.801C254.453 240.77 252.955 243.927 251.103 244.638C245.829 246.659 238.653 248.438 233.221 249.957L192.537 261.41L103.087 287.112C92.6656 289.997 80.2433 294.195 69.9248 296.34C65.1318 294.76 63.4746 293.947 61.0893 289.11C58.0828 283.012 51.7936 267.255 63.0821 265.428C63.2163 265.263 63.1856 265.185 63.2296 264.928C62.7748 264.543 62.0081 264.31 61.4251 264.18C57.1043 263.363 52.6653 257.87 51.4701 253.685C48.0196 241.602 42.9738 228.929 40.0133 216.763C38.8843 212.033 39.6623 207.048 42.1796 202.888C43.3008 201.054 44.7991 199.36 46.7981 198.561C51.3831 196.729 57.6198 194.989 62.4121 193.682C70.9173 191.364 80.1068 188.178 88.5638 186.163C83.3036 173.647 81.7351 164.683 96.7266 159.574Z" fill="#272725"/>
<path d="M240.451 215.324C243.708 214.833 247.03 215.608 249.736 217.491C250.564 218.955 251.749 222.098 252.781 225.34C253.77 228.443 254.59 231.545 254.823 233.245L254.863 233.566C255.039 235.278 254.906 237.009 254.471 238.675V238.677C254.231 239.617 253.749 240.854 253.106 241.935C252.45 243.038 251.685 243.878 250.923 244.171C245.679 246.181 238.544 247.949 233.086 249.475H233.085L192.401 260.929L192.399 260.93L102.948 286.632C92.5277 289.517 80.2254 293.673 69.9534 295.822C67.6213 295.051 66.121 294.479 64.9084 293.55C63.6865 292.613 62.7168 291.281 61.5374 288.889C60.0402 285.852 57.7491 280.453 57.2219 275.613C56.9582 273.192 57.1441 270.976 58.0295 269.272C58.8883 267.62 60.4382 266.387 63.0647 265.938L63.2053 265.974L63.3196 266.004L63.4348 265.978C64.7292 265.695 66.2677 265.67 68.012 265.593C69.7319 265.516 71.6133 265.388 73.4905 264.875C79.2523 263.299 84.6878 261.523 90.4241 260.031L90.425 260.032C119.749 252.57 148.914 244.496 177.902 235.818L213.952 225.426H213.953C217.106 224.51 222.394 223.157 227.457 221.557C229.995 220.754 232.493 219.884 234.662 218.968C236.823 218.055 238.693 217.081 239.95 216.059L240.013 216.009L240.056 215.941L240.451 215.324Z" fill="#ED572B" stroke="#272725"/>
<path d="M239.195 224.466C239.566 224.619 240.023 225.006 240.477 225.597C240.948 226.212 241.371 226.984 241.653 227.759C241.938 228.543 242.061 229.282 241.985 229.844C241.913 230.379 241.677 230.704 241.24 230.844C226.428 235.595 211.135 239.068 196.188 243.428V243.429L140.165 259.835H140.164C125.463 264.169 110.432 268.934 95.6182 272.705C91.7756 273.684 86.4397 275.41 81.208 276.986C76.0763 278.532 71.051 279.929 67.5332 280.387C66.8625 279.637 66.5155 279.07 66.2754 278.463C66.0084 277.789 65.8673 277.061 65.5957 275.911C65.5844 275.575 65.6476 275.323 65.7578 275.047C65.8187 274.895 65.89 274.744 65.9756 274.555C66.0421 274.408 66.1107 274.245 66.1816 274.063C68.1624 272.528 69.9663 271.855 72.4238 271.114C80.5166 268.675 88.749 266.414 96.9883 264.167C105.226 261.921 113.472 259.689 121.582 257.31L121.581 257.309L201.349 234.151L201.35 234.152L219.526 229.116L219.528 229.115C221.825 228.469 225.716 227.315 229.577 226.314C233.4 225.323 237.113 224.507 239.195 224.466Z" fill="#FDF9EF" stroke="#272725"/>
<path d="M58.1319 278.89C56.9932 274.133 56.4372 267.652 62.5699 266.247L62.5817 267.312C61.6504 270.6 63.0109 273.43 64.4947 276.223L64.4737 276.443C62.7847 278.71 60.8597 277.36 58.1319 278.89Z" fill="#E35022"/>
<path d="M99.6651 29.112C104.857 28.996 110.017 29.9378 114.833 31.8793C124.802 36.0895 132.691 44.0863 136.765 54.1113C141.417 65.357 141.511 77.014 136.499 88.1505C135.12 91.2155 133.008 93.937 131.749 97.0383C131.126 98.5713 130.715 100.208 130.768 101.871C131.063 111.071 139.522 135.859 143.452 145.178C132.455 148.845 120.088 151.742 108.679 155.39C106.757 156.117 104.569 156.693 102.488 157.478C101.032 148.749 91.6803 118.078 86.1583 112.477C83.7021 109.986 80.3511 108.529 77.3848 106.753C74.9143 105.246 72.5921 103.508 70.4488 101.563C62.4281 94.2305 57.2381 82.382 56.8128 71.6253C56.1838 55.7213 64.0563 41.297 78.4023 34.157C85.6076 30.571 91.6346 29.4493 99.6651 29.112Z" fill="#ED572B"/>
<path d="M103.192 39.3107C117.035 38.2715 134.531 60.281 121.473 63.749C118.496 62.8835 115.138 53.969 111.004 51.1405C106.303 47.9237 104.698 48.6057 100.199 46.3757C95.9338 44.262 98.8825 40.2605 103.192 39.3107Z" fill="#FDF9EF"/>
<path d="M157.266 147.59C163.611 147.58 165.07 157.565 166.66 162.704C162.183 163.956 157.626 165.544 153.123 166.855C135.169 172.059 117.255 177.399 99.3812 182.873L94.4222 184.003C92.7947 178.524 87.9985 168.772 95.437 166.003C100.224 164.22 105.277 162.771 110.172 161.315L132.785 154.555C138.661 152.812 151.797 148.26 157.266 147.59Z" fill="#824730"/>
</svg>
