<svg width="224" height="220" viewBox="0 0 224 220" fill="none" xmlns="http://www.w3.org/2000/svg">
<path d="M109.265 11.0689C164.615 8.37264 211.648 51.1047 214.255 106.458C216.863 161.812 174.056 208.776 118.698 211.295C63.4651 213.809 16.6301 171.119 14.0284 115.891C11.4266 60.6622 54.041 13.759 109.265 11.0689Z" fill="#181816"/>
<path d="M112.334 12.1582C166.906 11.1521 211.924 54.6494 212.793 109.224C213.662 163.799 170.052 208.707 115.475 209.44C61.0921 210.169 16.3771 166.747 15.5111 112.366C14.645 57.9846 57.9547 13.1608 112.334 12.1582Z" fill="#FEFBF3"/>
<path d="M110.578 23.5755C158.857 21.4268 199.716 58.8661 201.785 107.149C203.854 155.431 166.348 196.229 118.062 198.219C69.8883 200.204 29.2064 162.803 27.1419 114.633C25.0777 66.4628 62.4109 25.7192 110.578 23.5755Z" fill="#181816"/>
<path d="M101.859 30.504C110.943 29.6446 122.493 28.8374 131.469 31.2514L131.271 34.0573C131.533 33.3971 131.929 31.8852 132.193 31.5142C132.405 32.3675 132.502 34.1288 132.582 35.0664C132.855 33.6978 132.794 32.6657 132.778 31.2802C145.059 34.8872 155.279 38.5793 165.285 46.8624C161.255 49.1462 157.62 55.466 155.335 59.4883C159.74 62.957 163.489 67.6142 166.943 72.0322C167.213 71.8333 167.498 71.7132 167.8 71.5634C169.797 70.5741 171.757 68.6587 173.644 67.325C176.239 65.4906 178.177 64.6757 181.06 63.5628C183.22 66.7251 185.775 70.8321 187.307 74.2838L187.424 74.6037C191.283 82.5054 194.245 92.4791 195.178 101.232C195.252 101.703 195.322 102.079 195.328 102.56C195.69 111.09 195.863 119.813 193.877 128.16C193.68 128.988 193.392 130.014 193.27 130.827L192.969 131.373C191.01 140.639 187.503 149.027 182.171 156.851C181.462 157.891 180.058 160.114 179.305 160.997C176.725 164.619 172.717 168.818 169.388 171.789L168.034 173.091C165.935 174.783 163.045 177.241 160.892 178.716L160.065 179.253C153.543 183.287 146.53 186.466 139.198 188.712L138.832 188.527L138.73 188.162L138.428 188.909C138.12 188.939 138.034 188.985 137.772 188.83C135.953 190.885 117.738 192.895 114.142 192.633L112.585 192.737C107.066 192.527 101.644 192.313 96.2941 190.796C94.1104 190.177 87.6586 189.102 86.6822 187.501C86.3689 187.454 86.2798 187.251 85.9981 186.965C85.7513 187.459 85.9371 187.285 85.4107 187.492C76.779 185.726 64.9204 177.382 58.4773 171.507C58.2418 171.2 57.8082 170.893 57.4924 170.638C53.1479 165.736 50.0513 162.021 46.5489 156.509C40.8156 148.879 35.1347 133.003 34.1615 123.513L33.9578 122.035C33.8768 119.379 33.6216 116.746 33.5586 114.081C33.3949 107.946 33.8321 101.809 34.8638 95.7585L35.0889 94.7893C35.8501 92.5036 36.5733 88.4269 37.2387 86.0931C38.2927 82.3965 43.3585 69.757 45.5288 67.1821L46.1066 66.4379C50.11 57.7973 61.3059 47.1984 69.6167 42.5638C69.9965 42.3984 70.2799 42.2162 70.6353 42.0028C77.4516 37.2449 92.264 31.9567 100.482 30.6879L101.859 30.504Z" fill="#181816"/>
<path d="M69.6167 42.5638C72.1686 45.8698 73.5904 48.5025 75.5058 52.1667C75.863 52.8501 77.1581 55.3719 77.6129 55.6824L77.4202 56.1718C76.8002 57.3341 71.4048 61.1712 70.1594 62.445C61.8903 70.9 55.9709 79.4331 52.5933 90.9056C52.1746 92.3278 51.0061 95.9009 50.9298 97.1459L50.6969 97.8429C45.2598 97.8259 40.2261 96.0474 34.8638 95.7584L35.0889 94.7893C35.8501 92.5036 36.5733 88.4269 37.2387 86.0931C38.2927 82.3965 43.3585 69.757 45.5288 67.1821L46.1065 66.4379C50.1099 57.7973 61.3059 47.1984 69.6167 42.5638Z" fill="#ED5629"/>
<path d="M35.0889 94.7892C36.5037 95.3635 49.103 97.0827 50.9298 97.1459L50.6969 97.8428C45.2598 97.8258 40.2261 96.0474 34.8638 95.7584L35.0889 94.7892Z" fill="#4A1410"/>
<path d="M46.1065 66.4379C49.599 67.6302 56.8526 72.6958 59.956 74.922C58.3655 74.4447 57.3699 73.7608 55.9737 72.916C52.5862 70.8664 49.2112 68.6725 45.5288 67.1821L46.1065 66.4379Z" fill="#4A1410"/>
<path d="M60.4743 147.09C62.7722 150.263 64.9933 153.324 67.6956 156.172C68.0144 156.508 68.44 157.011 68.7088 157.383L68.7511 157.542C73.8154 162.004 78.4676 164.932 84.332 168.287C86.4901 169.522 90.5333 170.94 92.2469 171.981C90.0548 176.268 87.6599 182.488 85.9981 186.965C85.7513 187.459 85.9371 187.285 85.4107 187.492C76.779 185.726 64.9205 177.382 58.4773 171.507C58.2418 171.2 57.8083 170.893 57.4924 170.638C53.1479 165.736 50.0513 162.021 46.549 156.509C50.1476 154.278 53.4633 151.439 57.1113 149.245C58.1537 148.618 59.5915 147.859 60.4743 147.09Z" fill="#ED5629"/>
<path d="M60.4743 147.09C62.7722 150.263 64.9933 153.324 67.6956 156.172C68.0144 156.508 68.44 157.011 68.7088 157.383L68.7511 157.542C67.0165 160.094 58.6988 169.91 58.4773 171.507C58.2418 171.2 57.8083 170.893 57.4924 170.638C53.1479 165.736 50.0513 162.021 46.549 156.509C50.1476 154.278 53.4633 151.439 57.1113 149.245C58.1537 148.618 59.5915 147.859 60.4743 147.09Z" fill="#F79862"/>
<path d="M57.4924 170.638C58.0674 169.689 60.1754 167.327 60.928 166.49C62.3485 164.911 67.2859 157.758 68.7088 157.383L68.7511 157.542C67.0165 160.094 58.6988 169.91 58.4773 171.507C58.2418 171.2 57.8083 170.893 57.4924 170.638Z" fill="#4A1410"/>
<path d="M166.423 150.183C169.776 151.965 176.095 158.905 179.305 160.997C176.725 164.619 172.717 168.818 169.388 171.789L168.034 173.091C165.935 174.782 163.045 177.241 160.892 178.716L160.065 179.253C153.543 183.287 146.53 186.466 139.198 188.712L138.832 188.527L138.73 188.162C136.675 183.315 135.062 178.293 133.908 173.156C139.462 171.106 147.392 167.418 152.016 163.859L152.371 163.622C153.764 162.652 156.296 160.506 157.63 159.4L158.72 158.439C161.756 155.501 163.864 153.566 166.423 150.183Z" fill="#ED5629"/>
<path d="M166.423 150.183C169.776 151.965 176.095 158.905 179.305 160.997C176.725 164.619 172.717 168.818 169.388 171.789C166.238 170.39 160.873 161.567 158.72 158.439C161.756 155.501 163.864 153.566 166.423 150.183Z" fill="#F26C39"/>
<path d="M158.72 158.439C160.873 161.567 166.238 170.39 169.388 171.789L168.034 173.091C165.935 174.782 163.045 177.241 160.892 178.716C160.663 177.758 156.231 171.033 155.354 169.559C153.924 167.158 153.539 166.204 152.371 163.622C153.764 162.652 156.296 160.506 157.63 159.4L158.72 158.439Z" fill="#F79862"/>
<path d="M158.72 158.439C160.873 161.567 166.238 170.39 169.388 171.789L168.034 173.091C167.57 171.182 165.511 169.45 164.301 167.868C162.773 165.87 161.165 163.901 159.643 161.895C158.969 161.007 158.142 160.419 157.63 159.4L158.72 158.439Z" fill="#AF3114"/>
<path d="M152.371 163.622C153.539 166.204 153.924 167.158 155.354 169.559C156.231 171.033 160.663 177.758 160.892 178.716L160.065 179.253C159.48 176.141 153.634 169.292 152.016 163.859L152.371 163.622Z" fill="#AF3114"/>
<path d="M181.06 63.5628C183.22 66.7251 185.775 70.832 187.307 74.2837L187.424 74.6036C191.283 82.5054 194.245 92.4791 195.178 101.232C195.252 101.703 195.322 102.079 195.328 102.56C192.989 102.694 180.622 103.362 179.32 103.921L179.218 103.005C177.858 95.0529 175.752 88.8362 172.277 81.5517L171.999 80.9325C170.19 77.8899 168.959 75.0731 166.943 72.0322C167.213 71.8332 167.498 71.7131 167.8 71.5634C169.797 70.574 171.757 68.6587 173.644 67.3249C176.239 65.4906 178.177 64.6757 181.06 63.5628Z" fill="#ED5629"/>
<path d="M181.06 63.5628C183.22 66.7251 185.775 70.832 187.307 74.2837L187.424 74.6036C183.848 76.6775 175.442 79.4649 172.277 81.5517L171.999 80.9325C170.19 77.8899 168.959 75.0731 166.943 72.0322C167.213 71.8332 167.498 71.7131 167.8 71.5634C169.797 70.574 171.757 68.6587 173.644 67.3249C176.239 65.4906 178.177 64.6757 181.06 63.5628Z" fill="#ED5629"/>
<path d="M187.307 74.2838L187.424 74.6037C183.848 76.6775 175.442 79.4649 172.277 81.5517L171.999 80.9325C174.316 79.4808 184.422 75.4222 187.307 74.2838Z" fill="#4A1410"/>
<path d="M195.178 101.232C195.251 101.703 195.322 102.079 195.328 102.56C192.989 102.694 180.622 103.362 179.32 103.921L179.217 103.005C184.246 102.562 189.748 102.443 194.738 101.736C194.974 101.703 195.011 101.506 195.178 101.232Z" fill="#4A1410"/>
<path d="M33.9578 122.035C39.5731 121.671 44.6997 119.756 49.9183 118.595L50.0001 119.422C51.3298 129.126 55.3977 138.76 60.4742 147.09C59.5914 147.859 58.1537 148.617 57.1113 149.245C53.4632 151.439 50.1475 154.278 46.5489 156.508C40.8156 148.879 35.1347 133.003 34.1614 123.513L33.9578 122.035Z" fill="#ED5629"/>
<path d="M33.9578 122.035C39.5731 121.671 44.6997 119.756 49.9183 118.595L50.0001 119.422C45.3625 120.146 39.6554 122.65 34.1614 123.513L33.9578 122.035Z" fill="#4C1916"/>
<path d="M132.778 31.2802C145.059 34.8872 155.279 38.5793 165.285 46.8623C161.255 49.1461 157.62 55.466 155.335 59.4883C148.903 54.5694 138.907 49.1403 131.012 47.1403C131.064 44.1489 132.301 38.465 132.582 35.0663C132.855 33.6978 132.794 32.6657 132.778 31.2802Z" fill="#ED5629"/>
<path d="M177.254 127.695C180.835 128.948 189.1 130.737 192.969 131.373C191.01 140.639 187.503 149.027 182.17 156.851C181.462 157.891 180.058 160.114 179.305 160.997C176.095 158.905 169.776 151.965 166.423 150.183C171.754 142.27 174.258 136.693 177.254 127.695Z" fill="#ED5629"/>
<path d="M100.482 30.6878L101.859 30.5039C102.071 33.6501 102.51 37.5998 102.517 40.6521L102.192 41.0368C102.266 41.4442 102.338 41.7942 102.367 42.2092L102.036 42.0642C101.909 41.5918 101.824 41.25 101.744 40.7679L101.529 41.1883L102.167 46.2984C94.4767 47.5606 86.744 51.1384 80.0358 54.8543C79.1796 55.3287 78.3299 55.8061 77.4203 56.1717L77.613 55.6823C77.1581 55.3719 75.8631 52.85 75.5058 52.1666C73.5905 48.5024 72.1686 45.8697 69.6167 42.5637C69.9965 42.3983 70.2799 42.2161 70.6353 42.0028C77.4516 37.2448 92.264 31.9567 100.482 30.6878Z" fill="#ED5629"/>
<path d="M100.482 30.6878L101.859 30.5039C102.071 33.6501 102.51 37.5998 102.518 40.6521L102.192 41.0368C102.266 41.4442 102.339 41.7942 102.367 42.2092L102.036 42.0642C101.909 41.5918 101.824 41.25 101.744 40.7679L101.529 41.1883C101.17 40.3334 100.539 32.0149 100.482 30.6878Z" fill="#4A1410"/>
<path d="M69.6167 42.5638C69.9965 42.3983 70.2799 42.2161 70.6353 42.0028C71.7696 43.8887 78.0147 54.2442 77.648 55.5915C77.6394 55.6228 77.6246 55.652 77.613 55.6823C77.1581 55.3719 75.8631 52.8501 75.5058 52.1666C73.5905 48.5025 72.1686 45.8698 69.6167 42.5638Z" fill="#4A1410"/>
<path d="M101.859 30.504C110.943 29.6446 122.493 28.8374 131.469 31.2514L131.271 34.0573C131.016 38.4775 130.361 42.5737 130.019 46.9541C122.132 44.7118 111.061 44.2226 103.188 45.9113C103.102 45.1587 102.717 41.0704 102.517 40.6521C102.51 37.5998 102.071 33.6501 101.859 30.504Z" fill="#F26C39"/>
<path d="M179.32 103.921C180.622 103.362 192.989 102.694 195.328 102.56C195.69 111.09 195.863 119.813 193.877 128.16C193.68 128.988 193.393 130.014 193.27 130.827L192.969 131.373C189.1 130.737 180.835 128.948 177.255 127.695L177.291 127.303C179.841 122.137 179.553 109.834 179.32 103.921Z" fill="#ED5629"/>
<path d="M177.255 127.695L177.291 127.303C178.607 127.309 182.605 128.401 184.119 128.773C187.151 129.536 190.203 130.221 193.27 130.827L192.969 131.373C189.1 130.737 180.835 128.948 177.255 127.695Z" fill="#270605"/>
<path d="M92.2469 171.981L92.6959 172.36L93.0349 172.302C97.4846 174.156 107.813 176.111 112.599 176.366C112.609 177.505 112.593 178.752 112.652 179.881C113.041 180.51 112.851 186.342 112.837 187.499L114.116 186.654C114.117 188.446 114.042 190.895 114.142 192.633L112.585 192.737C107.066 192.527 101.644 192.313 96.2941 190.796C94.1104 190.177 87.6587 189.102 86.6822 187.501C86.369 187.454 86.2798 187.251 85.9982 186.965C87.66 182.488 90.0548 176.268 92.2469 171.981Z" fill="#ED5629"/>
<path d="M92.2469 171.981L92.6959 172.36L93.0349 172.302C92.5174 173.024 87.1302 186.052 86.6822 187.501C86.369 187.454 86.2798 187.251 85.9982 186.965C87.66 182.488 90.0548 176.268 92.2469 171.981Z" fill="#1A0B05"/>
<path d="M112.652 179.881C113.041 180.51 112.851 186.342 112.837 187.499L114.116 186.654C114.117 188.446 114.041 190.895 114.142 192.633L112.585 192.737L112.652 179.881Z" fill="#1A0B05"/>
<path d="M34.8638 95.7584C40.2261 96.0474 45.2599 97.8259 50.6969 97.8428C49.7417 103.869 49.1176 112.505 49.9183 118.595C44.6998 119.756 39.5732 121.671 33.9578 122.035C33.8768 119.379 33.6216 116.746 33.5586 114.081C33.3949 107.946 33.8321 101.809 34.8638 95.7584Z" fill="#ED5629"/>
<path d="M133.13 173.361L133.908 173.156C135.062 178.293 136.675 183.315 138.73 188.162L138.428 188.909C138.12 188.939 138.034 188.985 137.772 188.83C135.953 190.885 117.739 192.895 114.142 192.633C114.041 190.895 114.117 188.446 114.116 186.654C114.044 183.226 114.027 179.796 114.066 176.368C120.396 176.52 127.068 174.944 133.13 173.361Z" fill="#ED5629"/>
<path d="M133.13 173.361L133.908 173.156C135.062 178.293 136.675 183.315 138.73 188.162L138.428 188.909C138.12 188.939 138.034 188.985 137.772 188.83C136.677 184.836 133.484 177.425 133.13 173.361Z" fill="#1A0B05"/>
<path d="M107.736 47.1546C142.787 43.5341 174.138 69.0128 177.761 104.064C181.384 139.116 155.907 170.468 120.856 174.094C85.8012 177.719 54.4454 152.239 50.8223 117.184C47.199 82.1297 72.6807 50.7754 107.736 47.1546Z" fill="#FEFBF3"/>
<path d="M98.1628 96.6282C94.6937 96.5865 85.8047 97.236 82.8358 95.0177C81.4406 93.9751 81.9236 90.9245 83.3285 90.0447C94.1927 80.5817 103.98 69.9572 114.632 60.2702C115.409 59.5638 116.303 59.2045 117.328 59.1822C120.247 60.1627 124.358 66.7148 126.524 69.2392L140.657 85.5057C143.029 88.1975 149.556 94.1156 148.473 97.37C147.36 100.713 133.619 98.5828 131.029 98.1024C130.932 101.069 130.793 121.609 129.512 122.865C129.431 122.945 129.382 122.98 129.297 123.047C125.561 123.728 117.685 123.168 113.494 122.977L99.6927 122.414C98.1452 121.446 97.1943 121.192 97.0922 119.144C96.7332 111.95 98.6137 103.692 98.1628 96.6282Z" fill="#ED5629" stroke="#272725" stroke-miterlimit="1" stroke-linejoin="round"/>
<path d="M102.191 130.022C107.54 129.687 111.451 131.253 113.348 136.571C115.714 143.205 112.903 151.712 106.105 154.252C90.2442 157.076 90.0192 132.058 102.191 130.022Z" fill="#181816"/>
<path d="M103.691 135.344C105.772 135.257 106.722 136.55 107.777 138.138C108.128 141.609 108.273 147.403 104.26 148.838C102.614 148.722 102.048 148.517 100.583 147.828C99.3858 144.211 99.3548 140.936 100.727 137.35C101.925 136.356 102.318 136.079 103.691 135.344Z" fill="#FEFBF3"/>
<path d="M137.138 131.531C140.952 131.948 148.187 132.09 152.075 132.182L152.062 137.106C149.36 137.189 145.834 137.025 143.072 136.975L143.043 141.316C145.567 141.434 148.088 141.605 150.604 141.829C150.488 143.171 150.44 144.524 150.38 145.871C148.083 145.982 145.163 145.88 142.893 145.732L142.667 148.851C142.702 149.733 142.557 149.853 142.99 150.446C144.553 150.703 149.725 150.737 151.717 150.835C151.719 152.45 151.655 153.894 151.566 155.508C148.918 155.996 139.41 155.344 136.073 155.266C136.017 151.679 136.288 147.566 136.443 143.946C136.616 139.897 136.761 135.539 137.138 131.531Z" fill="#181816"/>
<path d="M73.6069 129.228C75.5743 129.448 77.2494 129.274 79.5295 129.611C80.7606 133.585 81.4835 140.05 82.4003 144.375C84.2269 140.813 86.1547 133.596 87.3898 129.547C89.3833 129.683 91.2293 129.731 93.2213 129.773C92.5665 132.279 91.8581 134.771 91.0967 137.248C89.219 142.747 87.5262 147.712 85.5112 153.22C83.0298 153.411 80.5365 153.393 78.0579 153.167C77.1551 145.446 74.297 137.47 73.6069 129.228Z" fill="#181816"/>
<path d="M116.357 130.887C121.31 130.689 128.532 131.178 133.653 131.332C133.674 133.109 133.537 135.033 133.443 136.82C131.567 136.888 129.444 136.842 127.549 136.845L126.706 149.369C126.045 155.103 127.136 154.865 120.742 154.665C120.825 149.016 121.322 142.21 121.63 136.53L115.78 136.305C115.795 135.269 115.746 131.571 116.357 130.887Z" fill="#181816"/>
<path d="M165.285 46.8624C170.882 50.8907 177.586 57.7457 181.06 63.5628C178.177 64.6757 176.239 65.4906 173.644 67.3249C171.757 68.6587 169.797 70.574 167.8 71.5634C167.498 71.7131 167.213 71.8332 166.943 72.0322C163.489 67.6141 159.74 62.957 155.335 59.4883C157.62 55.466 161.255 49.1462 165.285 46.8624Z" fill="#F79862"/>
</svg>
