<svg width="227" height="237" viewBox="0 0 227 237" fill="none" xmlns="http://www.w3.org/2000/svg">
<path d="M94.6242 14.7159C101.561 13.9929 108.528 15.7652 114.276 19.7148C121.117 24.3713 135.651 44.142 141.404 51.5323L184.281 107.46L202.664 131.504C208.224 138.727 217.526 149.221 219.155 158.07C220.667 165.902 218.926 174.012 214.333 180.533C212.192 183.614 208.819 187.127 205.365 188.699C197.789 192.146 188.847 192.824 180.734 194.298L132.282 202.668C125.281 204.006 118.915 204.825 111.951 205.942L86.9637 210.183L64.0351 214.037C59.8361 214.773 55.6632 215.73 51.4373 216.296C35.7432 218.399 22.6318 208.425 20.6192 192.835C20.1467 189.297 20.3968 185.7 21.3543 182.262C22.2263 179.067 23.3518 175.542 24.4917 172.449C26.7954 166.2 28.8412 159.884 31.037 153.595L46.1677 109.304L62.1358 60.3071C65.0316 51.2266 67.7576 42.1003 70.8682 33.0966C74.6591 22.1232 83.3634 16.1462 94.6242 14.7159Z" fill="#1A1918"/>
<path d="M95.0536 15.6055C96.3323 15.375 98.8861 15.4661 100.228 15.5833C115.351 16.9038 123.528 31.2118 132.111 42.0506C143.099 56.036 153.957 70.1233 164.683 84.3108L195.691 124.993C201.652 132.814 207.555 140.359 213.339 148.375C223.185 162.024 217.715 182.071 201.492 187.6C196.221 189.396 190.358 189.659 184.926 190.629L151.955 196.438C144.962 197.605 138.582 198.382 131.505 199.732C123.105 201.489 114.268 202.059 105.805 204.135C102.014 205.066 96.8741 205.465 92.8657 206.157L67.9941 210.527C55.868 212.738 42.3298 217.165 31.675 208.787C23.0109 201.973 20.5649 190.8 23.6121 180.474C25.4407 174.277 27.9137 168.26 29.9672 162.171L46.2039 114.077C51.6656 97.8241 56.9955 81.5271 62.1932 65.1878C64.4481 57.8085 66.7638 50.4476 69.1395 43.1063C70.1814 39.8032 71.0828 36.4326 72.2337 33.1706C75.8739 22.8523 84.4527 16.8525 95.0536 15.6055Z" fill="#FEF9ED"/>
<path d="M96.9904 27.7853C108.426 27.1644 114.965 39.9214 121.443 48.0706C128.769 57.2698 136.031 66.5203 143.227 75.8213C147.176 80.957 151.013 86.2363 154.993 91.3367L186.023 131.308C189.709 136.008 193.363 140.732 196.987 145.479C200.165 149.571 205.389 155.138 206.211 160.021C209.225 177.905 194.739 176.638 183.531 178.844C165.597 182.374 147.716 183.972 130.356 187.838C120.89 189.612 111.205 190.467 101.757 192.719C97.8944 193.639 93.3954 193.823 89.4515 194.666C86.0272 195.166 82.5092 196.192 79.084 196.615C69.2647 197.848 59.7533 199.977 49.9799 201.577C42.5727 202.789 35.4776 199.508 34.4825 191.382C33.7243 185.192 36.6447 179.02 38.5904 173.268L46.4068 150.338L62.2804 102.968L78.5907 53.124C80.3043 47.8939 81.9918 42.684 83.6016 37.4202C85.3433 31.7264 91.4089 28.4357 96.9904 27.7853Z" fill="#1A1918"/>
<path d="M96.0674 33.0757C101.898 32.4098 104.126 35.0353 107.398 39.3257C110.537 43.4421 113.621 47.6438 116.815 51.7181L153.401 98.6255L179.429 131.948L191.191 147.003C194.681 151.455 200.208 157.116 201.424 162.699C202.361 167.002 199.26 170.524 195.126 171.537C189.269 172.973 183.07 173.242 177.073 174.242L151.897 178.42C144.456 179.698 138.357 180.885 130.749 181.928C121.777 183.537 112.998 185.087 103.972 186.445C97.3565 187.441 90.654 189.215 83.9218 189.873C82.3559 190.026 80.324 190.351 78.7837 190.658C72.0108 191.938 65.3056 193.154 58.4796 194.208C54.3708 194.842 47.4952 197.483 43.6825 195.732C39.1869 193.666 39.049 188.792 40.4174 184.629C43.0377 176.657 45.9124 168.728 48.618 160.755L58.0622 132.645C62.0587 121.013 66.2755 109.218 70.1056 97.5488L84.5006 53.6881C86.2328 48.3237 87.6132 42.2727 89.766 37.1041C90.4924 35.3601 94.1772 33.6297 96.0674 33.0757Z" fill="#FDC64F"/>
<path d="M106.553 78.5666C112.663 77.575 116.048 79.4484 116.753 85.8612C117.153 89.5049 117.277 93.1458 117.46 96.8037L118.357 115.178C118.531 118.646 119.805 133.788 119.216 136.147C119.046 136.828 118.757 137.208 118.156 137.561C115.857 138.912 111.158 139.224 108.647 138.525C107.799 138.247 106.932 138.004 106.679 137.03C104.898 130.191 102.957 123.462 101.538 116.532C100.764 112.753 99.5121 108.991 98.7575 105.191C97.5274 98.9939 95.6116 92.9106 94.6701 86.6592C94.4165 85.0048 94.8617 82.8754 96.0015 81.6054C98.45 78.8889 103.115 78.8674 106.553 78.5666Z" fill="#1A1918"/>
<path d="M114.848 146.809C117.087 146.698 118.947 146.887 120.928 148.042C123.402 149.477 125.194 151.847 125.902 154.619C127.747 161.571 124.232 165.651 117.728 167.304C104.085 169.116 101.507 149.179 114.848 146.809Z" fill="#1A1918"/>
</svg>
