<svg xmlns="http://www.w3.org/2000/svg" width="128" height="128" viewBox="0 0 128 128" fill="none" role="img" aria-label="Algorithm Whisperer icon">
<title>Algorithm Whisperer icon</title>
<path d="M22 112 L111 112 Q119 112 119 104 L119 28" stroke="#17130F" stroke-width="8" stroke-linecap="round" opacity="0.22"/><path d="M64 8 L80 18 L99 18 L108 35 L120 48 L116 68 L120 88 L104 101 L96 118 L74 118 L64 124 L54 118 L32 118 L24 101 L8 88 L12 68 L8 48 L20 35 L29 18 L48 18 Z" fill="#D8FAFF" stroke="#17130F" stroke-width="5" stroke-linejoin="round"/>
<ellipse cx="64" cy="64" rx="49" ry="21" fill="none" stroke="#17130F" stroke-width="5" transform="rotate(-20 64 64)"/>
<ellipse cx="64" cy="64" rx="49" ry="21" fill="none" stroke="#159A9C" stroke-width="6" transform="rotate(20 64 64)"/>
<path d="M31 64 C44 43 84 43 97 64 C84 85 44 85 31 64 Z" fill="#FFF9EA" stroke="#17130F" stroke-width="5"/>
<circle cx="64" cy="64" r="14" fill="#45A8F2" stroke="#17130F" stroke-width="5"/>
<circle cx="64" cy="64" r="5" fill="#17130F"/>

</svg>
