<svg xmlns="http://www.w3.org/2000/svg" width="128" height="128" viewBox="0 0 128 128" fill="none" role="img" aria-label="Banhammer Enthusiast icon">
<title>Banhammer Enthusiast icon</title>
<path d="M22 112 L111 112 Q119 112 119 104 L119 28" stroke="#17130F" stroke-width="8" stroke-linecap="round" opacity="0.22"/><path d="M64 8 L80 18 L99 18 L108 35 L120 48 L116 68 L120 88 L104 101 L96 118 L74 118 L64 124 L54 118 L32 118 L24 101 L8 88 L12 68 L8 48 L20 35 L29 18 L48 18 Z" fill="#FFD23F" stroke="#17130F" stroke-width="5" stroke-linejoin="round"/>
<circle cx="64" cy="64" r="42" fill="#FFDF61" stroke="#17130F" stroke-width="5"/>
<path d="M47 75 L82 40" stroke="#17130F" stroke-width="10" stroke-linecap="round"/>
<rect x="70" y="25" width="34" height="22" rx="6" transform="rotate(45 70 25)" fill="#E83F4F" stroke="#17130F" stroke-width="5"/>
<path d="M42 88 H86" stroke="#17130F" stroke-width="6" stroke-linecap="round"/>

</svg>
