<svg xmlns="http://www.w3.org/2000/svg" width="128" height="128" viewBox="0 0 128 128" fill="none" role="img" aria-label="Chaos Goblin icon">
<title>Chaos Goblin icon</title>
<path d="M22 112 L111 112 Q119 112 119 104 L119 28" stroke="#17130F" stroke-width="8" stroke-linecap="round" opacity="0.22"/><path d="M64 8 L80 18 L99 18 L108 35 L120 48 L116 68 L120 88 L104 101 L96 118 L74 118 L64 124 L54 118 L32 118 L24 101 L8 88 L12 68 L8 48 L20 35 L29 18 L48 18 Z" fill="#D9C2FF" stroke="#17130F" stroke-width="5" stroke-linejoin="round"/>
<path d="M24 59 L8 43 L32 39" fill="#8B5CF6" stroke="#17130F" stroke-width="5" stroke-linejoin="round"/>
<path d="M104 59 L120 43 L96 39" fill="#8B5CF6" stroke="#17130F" stroke-width="5" stroke-linejoin="round"/>
<path d="M31 43 C40 24 88 24 97 43 C110 70 91 103 64 103 C37 103 18 70 31 43 Z" fill="#A875FF" stroke="#17130F" stroke-width="6"/>
<circle cx="49" cy="57" r="6" fill="#17130F"/><circle cx="79" cy="57" r="6" fill="#17130F"/>
<path d="M43 76 Q64 91 85 76" stroke="#17130F" stroke-width="5" stroke-linecap="round"/>
<path d="M53 79 L57 89 L62 81 L67 89 L72 79" fill="#FFF9EA" stroke="#17130F" stroke-width="3"/>

</svg>
