<svg xmlns="http://www.w3.org/2000/svg" width="128" height="128" viewBox="0 0 128 128" fill="none" role="img" aria-label="Community Therapist icon">
<title>Community Therapist icon</title>
<path d="M22 112 L111 112 Q119 112 119 104 L119 28" stroke="#17130F" stroke-width="8" stroke-linecap="round" opacity="0.22"/><path d="M64 8 L80 18 L99 18 L108 35 L120 48 L116 68 L120 88 L104 101 L96 118 L74 118 L64 124 L54 118 L32 118 L24 101 L8 88 L12 68 L8 48 L20 35 L29 18 L48 18 Z" fill="#FFE1EE" stroke="#17130F" stroke-width="5" stroke-linejoin="round"/>
<path d="M28 33 H100 Q110 33 110 43 V80 Q110 90 100 90 H68 L47 109 V90 H28 Q18 90 18 80 V43 Q18 33 28 33 Z" fill="#FFF9EA" stroke="#17130F" stroke-width="6" stroke-linejoin="round"/>
<path d="M64 78 C42 64 47 43 61 49 C63 50 64 52 64 52 C64 52 65 50 67 49 C81 43 86 64 64 78 Z" fill="#FF77AA" stroke="#17130F" stroke-width="4"/>

</svg>
