<svg xmlns="http://www.w3.org/2000/svg" width="128" height="128" viewBox="0 0 128 128" fill="none" role="img" aria-label="Drama Farmer icon">
<title>Drama Farmer icon</title>
<path d="M22 112 L111 112 Q119 112 119 104 L119 28" stroke="#17130F" stroke-width="8" stroke-linecap="round" opacity="0.22"/><path d="M64 8 L80 18 L99 18 L108 35 L120 48 L116 68 L120 88 L104 101 L96 118 L74 118 L64 124 L54 118 L32 118 L24 101 L8 88 L12 68 L8 48 L20 35 L29 18 L48 18 Z" fill="#FFD0BD" stroke="#17130F" stroke-width="5" stroke-linejoin="round"/>
<path d="M72 21 C86 47 63 45 83 67 C99 86 82 111 58 105 C40 101 32 82 42 66 C50 52 62 45 72 21 Z" fill="#FF6B3D" stroke="#17130F" stroke-width="5"/>
<path d="M37 24 V105" stroke="#17130F" stroke-width="7" stroke-linecap="round"/>
<path d="M24 24 V50 M37 24 V53 M50 24 V50" stroke="#17130F" stroke-width="6" stroke-linecap="round"/>

</svg>
