<svg xmlns="http://www.w3.org/2000/svg" width="128" height="128" viewBox="0 0 128 128" fill="none" role="img" aria-label="Growth Hacker icon">
<title>Growth Hacker icon</title>
<path d="M22 112 L111 112 Q119 112 119 104 L119 28" stroke="#17130F" stroke-width="8" stroke-linecap="round" opacity="0.22"/><path d="M64 8 L80 18 L99 18 L108 35 L120 48 L116 68 L120 88 L104 101 L96 118 L74 118 L64 124 L54 118 L32 118 L24 101 L8 88 L12 68 L8 48 L20 35 L29 18 L48 18 Z" fill="#CDEEFF" stroke="#17130F" stroke-width="5" stroke-linejoin="round"/>
<path d="M51 82 L27 101 L36 72 Z" fill="#FF9F43" stroke="#17130F" stroke-width="5"/>
<path d="M51 82 C56 50 75 27 103 18 C97 48 78 70 51 82 Z" fill="#45A8F2" stroke="#17130F" stroke-width="5"/>
<circle cx="78" cy="45" r="9" fill="#FFF9EA" stroke="#17130F" stroke-width="4"/>
<path d="M26 90 H100" stroke="#17130F" stroke-width="5" stroke-linecap="round"/>
<path d="M38 80 V90 M58 68 V90 M78 56 V90" stroke="#2FB36D" stroke-width="8" stroke-linecap="round"/>

</svg>
