<svg xmlns="http://www.w3.org/2000/svg" width="128" height="128" viewBox="0 0 128 128" fill="none" role="img" aria-label="Peacekeeper icon">
<title>Peacekeeper icon</title>
<path d="M22 112 L111 112 Q119 112 119 104 L119 28" stroke="#17130F" stroke-width="8" stroke-linecap="round" opacity="0.22"/><path d="M64 8 L80 18 L99 18 L108 35 L120 48 L116 68 L120 88 L104 101 L96 118 L74 118 L64 124 L54 118 L32 118 L24 101 L8 88 L12 68 L8 48 L20 35 L29 18 L48 18 Z" fill="#BFECCF" stroke="#17130F" stroke-width="5" stroke-linejoin="round"/>
<path d="M30 80 C46 58 67 54 91 42 C82 58 70 72 50 80 Z" fill="#FFF9EA" stroke="#17130F" stroke-width="5" stroke-linejoin="round"/>
<path d="M48 78 L33 100" stroke="#17130F" stroke-width="6" stroke-linecap="round"/>
<path d="M74 32 L93 51" stroke="#17130F" stroke-width="8" stroke-linecap="round"/>
<rect x="82" y="42" width="24" height="14" rx="4" transform="rotate(45 82 42)" fill="#FFD23F" stroke="#17130F" stroke-width="4"/>

</svg>
