<svg xmlns="http://www.w3.org/2000/svg" width="128" height="128" viewBox="0 0 128 128" fill="none" role="img" aria-label="Quality Purist icon">
<title>Quality Purist icon</title>
<path d="M22 112 L111 112 Q119 112 119 104 L119 28" stroke="#17130F" stroke-width="8" stroke-linecap="round" opacity="0.22"/><path d="M64 8 L80 18 L99 18 L108 35 L120 48 L116 68 L120 88 L104 101 L96 118 L74 118 L64 124 L54 118 L32 118 L24 101 L8 88 L12 68 L8 48 L20 35 L29 18 L48 18 Z" fill="#D8FAFF" stroke="#17130F" stroke-width="5" stroke-linejoin="round"/>
<path d="M64 19 L104 56 L64 108 L24 56 Z" fill="#B9F2FF" stroke="#17130F" stroke-width="6" stroke-linejoin="round"/>
<path d="M64 30 L71 50 L92 50 L75 63 L81 85 L64 72 L47 85 L53 63 L36 50 L57 50 Z" fill="#FFD23F" stroke="#17130F" stroke-width="4" stroke-linejoin="round"/>

</svg>
